<svg xmlns="http://www.w3.org/2000/svg" xmlns:xlink="http://www.w3.org/1999/xlink" viewBox="0 0 177.85 195.31"><defs><radialGradient id="a" cx="6.37" cy="42.64" r="82.37" gradientUnits="userSpaceOnUse"><stop offset="0" stop-color="#2b2b2b"/><stop offset="0.29" stop-color="#1a1a1a"/><stop offset="0.71" stop-color="#070707"/><stop offset="1"/></radialGradient><radialGradient id="b" cx="4.64" cy="97.77" r="58.62" gradientUnits="userSpaceOnUse"><stop offset="0" stop-color="#2b2b2b"/><stop offset="0.41" stop-color="#171717"/><stop offset="0.5" stop-color="#191919"/><stop offset="0.96" stop-color="#202020"/></radialGradient><radialGradient id="c" cx="19.42" cy="65.39" r="62.73" gradientUnits="userSpaceOnUse"><stop offset="0.01" stop-color="#101010"/><stop offset="1" stop-color="#101010" stop-opacity="0"/></radialGradient><radialGradient id="d" cx="12.89" cy="90.4" r="37.03" xlink:href="#b"/><radialGradient id="e" cx="42.53" cy="69.15" r="45.24" xlink:href="#c"/><radialGradient id="f" cx="29.22" cy="83.44" r="48.84" xlink:href="#c"/><radialGradient id="g" cx="43.13" cy="87.4" r="68.86" xlink:href="#c"/><radialGradient id="h" cx="19.12" cy="77.12" r="21.68" xlink:href="#c"/><radialGradient id="i" cx="31.85" cy="54.4" r="10.06" xlink:href="#c"/><radialGradient id="j" cx="442.22" cy="42.64" r="82.37" gradientTransform="matrix(-1, 0, 0, 1, 613.71, 0)" xlink:href="#a"/><radialGradient id="k" cx="440.5" cy="97.77" r="58.62" gradientTransform="matrix(-1, 0, 0, 1, 613.71, 0)" xlink:href="#b"/><radialGradient id="l" cx="455.28" cy="65.39" r="62.73" gradientTransform="matrix(-1, 0, 0, 1, 613.71, 0)" xlink:href="#c"/><radialGradient id="m" cx="448.75" cy="90.4" r="37.03" gradientTransform="matrix(-1, 0, 0, 1, 613.71, 0)" xlink:href="#b"/><radialGradient id="n" cx="478.52" cy="69.15" r="45.49" gradientTransform="matrix(-1, 0, 0, 1, 613.71, 0)" xlink:href="#c"/><radialGradient id="o" cx="465.07" cy="83.44" r="48.84" gradientTransform="matrix(-1, 0, 0, 1, 613.71, 0)" xlink:href="#c"/><radialGradient id="p" cx="478.99" cy="87.4" r="68.86" gradientTransform="matrix(-1, 0, 0, 1, 613.71, 0)" xlink:href="#c"/><radialGradient id="q" cx="454.98" cy="77.12" r="21.68" gradientTransform="matrix(-1, 0, 0, 1, 613.71, 0)" xlink:href="#c"/><radialGradient id="r" cx="465.55" cy="31.44" r="36.25" gradientTransform="matrix(-1, 0, 0, 1, 613.71, 0)" xlink:href="#c"/><radialGradient id="s" cx="86.46" cy="-10.84" r="55.36" xlink:href="#a"/><radialGradient id="t" cx="87.75" cy="-1.66" r="43.9" xlink:href="#a"/><radialGradient id="u" cx="89.77" cy="-3.23" r="36.65" xlink:href="#a"/><radialGradient id="v" cx="0.77" cy="114.98" r="335.36" gradientTransform="translate(94.26 110.82) rotate(87.93) scale(1 0.81)" gradientUnits="userSpaceOnUse"><stop offset="0" stop-color="#242424"/><stop offset="0.03" stop-color="#232323"/><stop offset="0.42" stop-color="#101010"/><stop offset="0.77" stop-color="#1f1f1f"/><stop offset="1" stop-color="#2b2b2b"/></radialGradient><radialGradient id="w" cx="73.52" cy="264.4" r="132.61" gradientTransform="matrix(1, 0, 0, 1, 0, 0)" xlink:href="#v"/><radialGradient id="x" cx="73.52" cy="227.55" r="107.92" gradientTransform="matrix(1, 0, 0, 1, 0, 0)" xlink:href="#v"/><radialGradient id="y" cx="144.58" cy="192.97" r="5.3" gradientTransform="matrix(1, 0, 0, 1, 0, 0)" xlink:href="#v"/><radialGradient id="z" cx="33.29" cy="192.98" r="5.31" gradientTransform="matrix(1, 0, 0, 1, 0, 0)" xlink:href="#v"/><radialGradient id="aa" cx="120.94" cy="1.15" r="60.67" gradientUnits="userSpaceOnUse"><stop offset="0" stop-color="#2b2b2b"/><stop offset="0.01" stop-color="#2a2a2a"/><stop offset="0.25" stop-color="#171717"/><stop offset="0.42" stop-color="#101010"/></radialGradient><radialGradient id="ab" cx="48.52" cy="5.15" r="64.32" xlink:href="#aa"/><radialGradient id="ac" cx="90.02" cy="18.65" r="67.99" xlink:href="#b"/><radialGradient id="ad" cx="110.73" cy="1.19" r="5.72" xlink:href="#b"/><radialGradient id="ae" cx="78.27" cy="10.24" r="44.23" xlink:href="#b"/><radialGradient id="af" cx="67.32" cy="1.19" r="5.72" xlink:href="#b"/><radialGradient id="ag" cx="35.49" cy="72.28" r="48.16" gradientTransform="translate(92.99 34.68) rotate(87.93) scale(1 0.81)" xlink:href="#c"/><radialGradient id="ah" cx="124.02" cy="69.4" r="42.9" xlink:href="#c"/><radialGradient id="ai" cx="81.01" cy="-16.4" r="79.56" xlink:href="#b"/><radialGradient id="aj" cx="130.91" cy="-56.25" r="193.78" xlink:href="#c"/><radialGradient id="ak" cx="44.52" cy="-66.85" r="234.56" xlink:href="#c"/><radialGradient id="al" cx="35.27" cy="-30.33" r="143.37" xlink:href="#c"/><radialGradient id="am" cx="65.1" cy="143.98" r="50.67" xlink:href="#c"/><radialGradient id="an" cx="59.47" cy="116.97" r="30.71" xlink:href="#c"/><radialGradient id="ao" cx="121.22" cy="104.14" r="42.47" xlink:href="#c"/><radialGradient id="ap" cx="123.19" cy="155.11" r="59.14" gradientTransform="translate(244.89 27.43) rotate(87.93) scale(1 0.81)" xlink:href="#c"/><radialGradient id="aq" cx="142.1" cy="71.65" r="22.49" xlink:href="#c"/><radialGradient id="ar" cx="53.1" cy="184.65" r="129.21" xlink:href="#c"/><radialGradient id="as" cx="114.45" cy="236.22" r="151.31" xlink:href="#c"/><radialGradient id="at" cx="60.22" cy="163.35" r="23.95" xlink:href="#aa"/><radialGradient id="au" cx="22.35" cy="44.7" r="44.74" gradientTransform="translate(57.9 21.05) rotate(87.93) scale(1 0.81)" xlink:href="#v"/><radialGradient id="av" cx="138.44" cy="44.7" r="44.74" gradientTransform="translate(169.79 -94.97) rotate(87.93) scale(1 0.81)" xlink:href="#v"/></defs><title>Asset 1</title><path d="M37.68,78.74c.25-5.34,1.2-11.51-.66-16.59-1.41-3.85-1.28-11.23-2.93-14.94s-2.31-8.35-3.49-12.4-5.66-11.5-5.66-11.5A1.37,1.37,0,0,1,24.77,22s-2-.33-3.25,4.67S-.73,75.15,0,76.4s11.25,10,33.75,12C33.77,88.4,36.1,85.29,37.68,78.74Z" style="fill:url(#a)"/><path d="M2.85,68.89C1,73.17-.17,76.09,0,76.4c.75,1.25,11.25,10,33.75,12a24.65,24.65,0,0,0,3-6.6C16,79,5.18,71.26,2.85,68.89Z" style="fill:url(#b)"/><path d="M37,62.15c-1.41-3.85-1.28-11.23-2.93-14.94s-2.31-8.35-3.49-12.4-5.66-11.5-5.66-11.5A1.37,1.37,0,0,1,24.77,22s-1.51-.25-2.72,3a.92.92,0,0,1,.22,0,1.45,1.45,0,0,0,.18,1.42s6.08,5.16,7.32,9.42,1.8,10,3.62,14.13c1.76,4,.43,13.73,1.93,17.83,1.79,4.9,1.14,10.75.8,16a39,39,0,0,0,1.56-5C37.93,73.4,38.88,67.23,37,62.15Z" style="fill:url(#c)"/><path d="M36.31,82.63A29.27,29.27,0,0,1,34,88.09a27,27,0,0,0,2.83-6.29C16,79,5.18,71.26,2.85,68.89l-.41.93C5,72.29,15.72,79.87,36.31,82.63Z" style="fill:url(#d)"/><path d="M35.77,60.77c-1-.5-7.2.84-7.25-2.5-.17-10.66-8.17-34-6.42-29s4.24,32.21,3.34,35.34C23.06,72.9,37.68,78.74,37.68,78.74c.08-1.75.24-3.59.35-5.44C36.28,70.94,36.51,61.14,35.77,60.77Z" style="fill:url(#e)"/><path d="M15.46,41a20.59,20.59,0,0,0-1.78,10c.48,6.71,1.62,19.11,10.71,23.93,6.44,3.4-9.62-6.75-7.87-22.75a192.45,192.45,0,0,1,5-25.5C21.11,28.27,18.62,34,15.46,41Z" style="fill:url(#f)"/><path d="M24.64,68.77s5.88,11.25,7,12c.05,0-.18,1.15-2.95.63-4.63-.88-12.8-3.52-12.42-3.34,7.58,3.67,14.83,5,14.67,5.34-.71,1.32-1.66,2.3-1.42,3,.68,1.95,4.63,1.31,4.25,2,0,0,1.39-2.48,2.25-4.42a10.93,10.93,0,0,0,1.17-4.42S27,72.4,24.64,68.77Z" style="fill:url(#g)"/><path d="M21.6,77.48S15,72.65,13.77,64.65s-4-5-5.75-3S3.77,68.9,3.77,68.9,12.6,75.31,21.6,77.48Z" style="fill:url(#h)"/><path d="M35.52,62.31s-2-6.66-3.5-6.66a1.89,1.89,0,0,0-1,.29,1.37,1.37,0,0,0,.62,2.54h0C32.19,58.48,33.52,59.31,35.52,62.31Z" style="fill:url(#i)"/><path d="M140.18,78.74c-.26-5.34-1.21-11.51.65-16.59,1.41-3.85,1.28-11.23,2.93-14.94s2.31-8.35,3.49-12.4,5.67-11.5,5.67-11.5a1.36,1.36,0,0,0,.16-1.33s2-.33,3.25,4.67,22.25,48.5,21.5,49.75-11.25,10-33.75,12C144.08,88.4,141.76,85.29,140.18,78.74Z" style="fill:url(#j)"/><path d="M175,68.89c1.86,4.28,3,7.2,2.82,7.51-.75,1.25-11.25,10-33.75,12a25,25,0,0,1-3-6.6C161.9,79,172.67,71.26,175,68.89Z" style="fill:url(#k)"/><path d="M140.83,62.15c1.41-3.85,1.28-11.23,2.93-14.94s2.31-8.35,3.49-12.4,5.67-11.5,5.67-11.5a1.36,1.36,0,0,0,.16-1.33s1.51-.25,2.72,3a.84.84,0,0,0-.21,0,1.48,1.48,0,0,1-.18,1.42s-6.08,5.16-7.33,9.42-1.8,10-3.62,14.13c-1.76,4-.43,13.73-1.93,17.83-1.79,4.9-1.14,10.75-.79,16a39,39,0,0,1-1.56-5C139.92,73.4,139,67.23,140.83,62.15Z" style="fill:url(#l)"/><path d="M141.54,82.63a30,30,0,0,0,2.33,5.46A27,27,0,0,1,141,81.8c20.86-2.8,31.63-10.54,34-12.91l.4.93C172.89,72.29,162.13,79.87,141.54,82.63Z" style="fill:url(#m)"/><path d="M142.08,60.77c1-.5,7.2.84,7.25-2.5.17-10.66,8.17-34,6.42-29s-.38,30.38.52,33.5c2.37,8.25-16.09,15.93-16.09,15.93-.09-1.75-.24-3.59-.35-5.44C141.57,70.94,141.34,61.14,142.08,60.77Z" style="fill:url(#n)"/><path d="M162.39,41a20.71,20.71,0,0,1,1.79,10c-.49,6.71-1.63,19.11-10.72,23.93-6.44,3.4,9.62-6.75,7.87-22.75a192.45,192.45,0,0,0-5-25.5C156.74,28.27,159.24,34,162.39,41Z" style="fill:url(#o)"/><path d="M153.21,68.77s-5.88,11.25-7,12c-.05,0,.18,1.15,3,.63,4.63-.88,12.8-3.52,12.41-3.34-7.58,3.67-14.83,5-14.66,5.34.7,1.32,1.65,2.3,1.41,3-.67,1.95-4.63,1.31-4.25,2,0,0-1.39-2.48-2.25-4.42a10.77,10.77,0,0,1-1.16-4.42S150.83,72.4,153.21,68.77Z" style="fill:url(#p)"/><path d="M156.25,77.48s6.58-4.83,7.83-12.83,4-5,5.75-3,4.25,7.25,4.25,7.25S165.25,75.31,156.25,77.48Z" style="fill:url(#q)"/><path d="M142.33,62.31s1.27-10.66,2.77-10.66c.35,0,4.87-15.51,5.17-15.34,1.14.67-2.77,22.14-4.09,22.17h0C145.67,58.48,144.33,59.31,142.33,62.31Z" style="fill:url(#r)"/><path d="M63.27,2s24.87,6.5,51,0c0,0,2,13.48-25.13,13.63C65.77,15.77,63.27,2,63.27,2Z" style="fill:url(#s)"/><path d="M69.77,1.06A84.82,84.82,0,0,0,108.37.9s4.27-1.16,5.32-.25C116.77,3.31,91.1,12.9,64.94,3.31,64.94,3.31,61.85-1.6,69.77,1.06Z" style="fill:url(#t)"/><path d="M64.94,2.69a4.5,4.5,0,0,1-.57-1.44,3.58,3.58,0,0,0,.57,2.06c25.53,9.36,50.57.46,48.91-2.45C112.31,4.21,88.84,11.44,64.94,2.69Z" style="fill:url(#u)"/><path d="M84.16,6.07s-.11,3.93,0,4.33,7.6.7,9.57.1l-.06-4.43Z" style="fill:#eddfbe"/><path d="M89.16,6.11s3.14.36,4.52.43V6.07H89.09Z" style="fill:#ddd0b6"/><path d="M84.17,10.4c0,.11.56.2,1.35.28a4.58,4.58,0,0,1-1.37-.41A.9.9,0,0,0,84.17,10.4Z" style="fill:#ddd0b6"/><path d="M93.74,10.5V10l-.45,0s-1.54.26-3.9.5a11.41,11.41,0,0,1-2.58.2h-.17A29.72,29.72,0,0,0,93.74,10.5Z" style="fill:#ddd0b6"/><path d="M86.71,7.47c-.22-.08-.31-.15-.31-.3s.08-.24.3-.24A.64.64,0,0,1,87,7l0-.17a.69.69,0,0,0-.35-.08.46.46,0,0,0-.51.43c0,.23.16.36.42.45s.3.17.3.32-.12.27-.33.27a.7.7,0,0,1-.37-.11l0,.17a.76.76,0,0,0,.4.1c.38,0,.56-.21.56-.45S87,7.58,86.71,7.47Z" style="fill:#929699"/><polygon points="87.6 7.63 88.36 7.63 88.36 8.37 88.57 8.37 88.57 6.79 88.36 6.79 88.36 7.45 87.6 7.45 87.6 6.79 87.39 6.79 87.39 8.37 87.6 8.37 87.6 7.63" style="fill:#929699"/><rect x="88.92" y="6.79" width="0.2" height="1.58" style="fill:#929699"/><path d="M89.69,7.69h.19c.18,0,.27.09.31.3a1.88,1.88,0,0,0,.11.38h.21a2.6,2.6,0,0,1-.12-.43.39.39,0,0,0-.23-.32h0a.42.42,0,0,0,.3-.4.4.4,0,0,0-.13-.3.65.65,0,0,0-.46-.13,2.21,2.21,0,0,0-.39,0V8.37h.21Zm0-.74.2,0c.21,0,.36.1.36.3s-.14.3-.36.3h-.2Z" style="fill:#929699"/><polygon points="90.58 6.79 90.58 6.96 91.06 6.96 91.06 8.37 91.27 8.37 91.27 6.96 91.75 6.96 91.75 6.79 90.58 6.79" style="fill:#929699"/><path d="M86.69,9.56c0,.15-.1.29-.13.42h0q0-.2-.12-.42L86.26,9H86.1l.37,1.13h.16L87,9h-.15Z" style="fill:#929699"/><polygon points="88.86 9.13 89.21 9.13 89.21 10.13 89.36 10.13 89.36 9.13 89.7 9.13 89.7 9 88.86 9 88.86 9.13" style="fill:#929699"/><path d="M91.41,9.59h0a.3.3,0,0,0,.22-.29.29.29,0,0,0-.09-.21.44.44,0,0,0-.33-.1,1.14,1.14,0,0,0-.28,0v1.11h.15V9.64h.13c.14,0,.2.07.23.22a1.12,1.12,0,0,0,.08.27h.15a1.35,1.35,0,0,1-.09-.31A.28.28,0,0,0,91.41,9.59Zm-.18-.06h-.15V9.12h.14c.15,0,.26.06.26.21S91.38,9.53,91.23,9.53Z" style="fill:#929699"/><polygon points="87.3 9.6 87.74 9.6 87.74 9.48 87.3 9.48 87.3 9.12 87.76 9.12 87.76 9 87.15 9 87.15 10.13 87.79 10.13 87.79 10.01 87.3 10.01 87.3 9.6" style="fill:#929699"/><path d="M90.24,9a.54.54,0,0,0-.53.6.52.52,0,0,0,.51.57.53.53,0,0,0,.52-.6A.51.51,0,0,0,90.24,9Zm0,1c-.23,0-.36-.22-.36-.46s.12-.47.36-.47.36.24.36.46S90.46,10,90.23,10Z" style="fill:#929699"/><path d="M88.5,9.11a.63.63,0,0,1,.23,0l0-.12a.63.63,0,0,0-.27,0,.56.56,0,0,0-.59.6.53.53,0,0,0,.56.57.71.71,0,0,0,.3-.06l0-.11a.57.57,0,0,1-.24,0,.41.41,0,0,1-.44-.45A.42.42,0,0,1,88.5,9.11Z" style="fill:#929699"/><polygon points="93.37 8.01 93.25 8.01 93.25 8.51 93.37 8.48 93.37 8.01" style="fill:#929699"/><polygon points="93.37 6.36 93.25 6.36 93.25 6.86 93.37 6.84 93.37 6.36" style="fill:#929699"/><polygon points="93.37 7.18 93.25 7.18 93.25 7.68 93.37 7.66 93.37 7.18" style="fill:#929699"/><polygon points="93.37 8.83 93.25 8.83 93.25 9.33 93.37 9.31 93.37 8.83" style="fill:#929699"/><polygon points="93.37 9.78 93.25 9.78 93.25 10.28 93.37 10.26 93.37 9.78" style="fill:#929699"/><polygon points="84.5 7.99 84.38 7.99 84.38 8.49 84.5 8.47 84.5 7.99" style="fill:#929699"/><polygon points="84.5 6.35 84.38 6.35 84.38 6.85 84.5 6.82 84.5 6.35" style="fill:#929699"/><polygon points="84.5 7.17 84.38 7.17 84.38 7.67 84.5 7.65 84.5 7.17" style="fill:#929699"/><polygon points="84.5 8.82 84.38 8.82 84.38 9.32 84.5 9.29 84.5 8.82" style="fill:#929699"/><polygon points="84.5 9.77 84.38 9.77 84.38 10.27 84.5 10.25 84.5 9.77" style="fill:#929699"/><path d="M153.09,22c-.33-.67-34.5-17.83-34.5-17.83-4.14,4.14-10.32,9.89-16,11.68a45.52,45.52,0,0,1-27.38,0C69.6,14,63.43,8.29,59.28,4.15c0,0-34.17,17.16-34.5,17.83A1.37,1.37,0,0,0,25,23.31s4.5,7.5,5.66,11.5,1.78,8.54,3.49,12.4S35.62,58.3,37,62.15c1.94,5.3.82,11.79.62,17.29,0,.83,1,5.52.87,9.46,0,1.43-1.75,10.5-1.5,16.5,1,23.53-1.38,59.07-2.52,66.24-.56,3.48-2.09,7.79-1.55,11.34a31.47,31.47,0,0,1,.33,6s4.5,3.5,27.17,4.5,28.49,1.83,28.49,1.83,5.82-.83,28.49-1.83,27.16-4.5,27.16-4.5a32,32,0,0,1,.34-6c.53-3.55-1-7.86-1.55-11.34-1.47-9.16-3-87-3.16-92.2-.2-5.5-1.32-12,.62-17.29,1.41-3.85,1.28-11.23,2.93-14.94s2.31-8.35,3.49-12.4,5.67-11.5,5.67-11.5A1.36,1.36,0,0,0,153.09,22Z" style="fill:url(#v)"/><path d="M145,182.74c-2.07,1-8.8,3.35-26.94,4.15-23.13,1-29.07,1.87-29.07,1.87s-6-.85-29.07-1.87c-18.14-.8-24.88-3.17-26.94-4.15a1.94,1.94,0,0,0,0,.24,31.47,31.47,0,0,1,.33,6s4.5,3.5,27.17,4.5,28.49,1.83,28.49,1.83,5.82-.83,28.49-1.83,27.16-4.5,27.16-4.5a32,32,0,0,1,.34-6C144.94,182.9,144.94,182.82,145,182.74Z" style="fill:url(#w)"/><path d="M33,183.67c2.19,1,9,3.31,26.83,4.1,23.12,1,29.07,1.87,29.07,1.87s5.94-.85,29.07-1.87c17.83-.79,24.64-3.09,26.82-4.1,0-.23.06-.46.1-.69,0-.08,0-.16,0-.24-2.07,1-8.8,3.35-26.94,4.15-23.13,1-29.07,1.87-29.07,1.87s-6-.85-29.07-1.87c-18.14-.8-24.88-3.17-26.94-4.15a1.94,1.94,0,0,0,0,.24Z" style="fill:url(#x)"/><path d="M144.57,189l0,0s0-.26,0-.7Z" style="fill:url(#y)"/><path d="M33.3,188.27c0,.45,0,.71,0,.71l0,0C33.31,188.79,33.31,188.55,33.3,188.27Z" style="fill:url(#z)"/><g style="opacity:0.7000000000000001"><path d="M118.59,4.15c-4.14,4.14-10.32,9.89-16,11.68a46,46,0,0,1-8.47,1.8c5.26,1,20.43-.9,24.78.18,7,1.75,19.58,7.09,23.33,8.84,1.53.71,3.13,3.55,6.28,4.88,1.76-3.85,4.38-8.22,4.38-8.22a1.36,1.36,0,0,0,.16-1.33C152.76,21.31,118.59,4.15,118.59,4.15Z" style="opacity:0.7000000000000001;fill:url(#aa)"/><path d="M80.79,17.19a46.15,46.15,0,0,1-5.54-1.36C69.6,14,63.43,8.29,59.28,4.15c0,0-34.17,17.16-34.5,17.83A1.37,1.37,0,0,0,25,23.31s1.94,3.25,3.6,6.6l1-.51s23.25-8.5,37-10.5C72.31,18.05,77.13,17.53,80.79,17.19Z" style="opacity:0.9;fill:url(#ab)"/></g><path d="M59.28,4.15c4.15,4.14,10.32,9.89,16,11.68a45.52,45.52,0,0,0,27.38,0c5.64-1.79,11.82-7.54,16-11.68h0s-3.5-3.63-4.5-4-4.12,0-5.75.75S114.25-.48,113,2,101.69,13,88.94,12.9C76.19,13,66.12,4.52,64.87,2S71.12,1.65,69.5.9,64.75-.23,63.75.15s-4.5,4-4.5,4h0Z" style="fill:url(#ac)"/><path d="M113,1.15l0,0c.3-.6.09-.93-.36-1.1a12.26,12.26,0,0,0-4.27.89C107,1.53,112,.15,113,1.15Z" style="fill:url(#ad)"/><path d="M102.63,14.91a45.52,45.52,0,0,1-27.38,0C69.8,13.19,63.86,7.77,59.72,3.67l-.47.48h0c4.15,4.14,10.32,9.89,16,11.68a45.52,45.52,0,0,0,27.38,0c5.64-1.79,11.82-7.54,16-11.68h0l-.47-.48C114,7.77,108.08,13.19,102.63,14.91Z" style="fill:url(#ae)"/><path d="M64.87,1.11l0,0c.94-1,6,.38,4.6-.25A12.26,12.26,0,0,0,65.24,0C64.78.18,64.58.51,64.87,1.11Z" style="fill:url(#af)"/><path d="M48.27,60.77c-2-1.4-5.15,5.49-6.5,10C39.9,77.13,40,82.37,38.36,85.23a30.13,30.13,0,0,1,.16,3.67,180.84,180.84,0,0,0,8.66-19c.52-1.45,6.28-19,6.59-20.22C54.4,47.12,49.15,61.39,48.27,60.77Z" style="fill:url(#ag)"/><path d="M141.1,65.31s0-11,.34-14-6.34-14-7.34-14.66-7-3.34-6.33-1.34S138.89,53,138.89,53l-8.45-15s3,.33,4.33,2.33,4.33,9.34,4.67,12.67S141.1,65.31,141.1,65.31Z" style="fill:url(#ah)"/><path d="M113,8.46,109.4,11l-2.26-3A35.17,35.17,0,0,1,88.52,13.4c-6.87.06-12.27-2.39-16.63-4.82l-2.18,3.07L66.19,9.52a32.82,32.82,0,0,0,9.06,5.7c9.83,3.55,18.47,2.57,27.38,0A28.38,28.38,0,0,0,113,8.46Z" style="fill:url(#ai)"/><path d="M142.27,45.9s-1.5-8.5-5.5-10.75-13.5-3.5-11.5-9c1.19-3.27,6.75,1.25,10,4.25.39.36.85.81,1.36,1.33a24.83,24.83,0,0,1,6.15,24l-.26.95Z" style="fill:url(#aj)"/><path d="M38.27,69.65s2-9.5,2-13,21-25.25,21-25.25-16,13-18.5,16.25-5,6.75-5,9-1,9.75-1,9.75Z" style="fill:url(#ak)"/><path d="M28.22,29.25s5.22,5.06,5.22,8.73,2,13.67,4.33,14.33,7.67-11.66,11.67-14-4.67-1.33-5.67,1-7.33-2.33-8-4S31,28.51,28.22,29.25Z" style="fill:url(#al)"/><path d="M63.44,91c-1-5-5.67,11-13.34,20.67a72.31,72.31,0,0,1-12.89,12.21c-.27,20.5-1.84,42.33-2.71,47.78-.23,1.4-.6,2.94-1,4.5L34.77,175C35.77,174.65,64.44,96,63.44,91Z" style="fill:url(#am)"/><path d="M41.77,90.31a48.59,48.59,0,0,0-4.73,12c0,1.1-.06,2.16,0,3.14.26,6.2.28,13.24.16,20.38,4.48-8.06,13.3-21.38,16.59-28.47C70.77,60.65,51.44,73.31,41.77,90.31Z" style="fill:url(#an)"/><path d="M136.1,83.59c-2.48-3.54-5.67-1.77-8.86-6s-8.5-9.57-6.73-1.42c1.25,5.74,13.73,37.11,21,55.18-.42-14.4-.78-29.5-1-39.72C138.61,87.9,136.91,84.75,136.1,83.59Z" style="fill:url(#ao)"/><path d="M126.77,134.31c1.67,4.34,7.33,7.67,7,13.34s-1.67,17.66-1.67,17.66l12.36,11.5c-.37-1.8-.83-3.57-1.08-5.17-.4-2.51-.81-10.17-1.19-20.08-4.13-10.91-9.22-24.53-9.42-25.91C132.44,123.31,125.1,130,126.77,134.31Z" style="fill:url(#ap)"/><path d="M140.08,65.1,134.44,50s-4-2.67-8-1-2.34,6,0,10.33,8.66,10,13,15.67c.19.25.38.53.56.81A44.94,44.94,0,0,1,140.08,65.1Z" style="fill:url(#aq)"/><path d="M46.35,192.32c3.66.48,8.27.9,14.1,1.16,22.66,1,28.49,1.83,28.49,1.83s5.82-.83,28.49-1.83A150.58,150.58,0,0,0,133,192.1L113.77,169s-27.33-6.67-33.67-5.33-5,9-14,18.33C62,186.23,54,189.71,46.35,192.32Z" style="fill:url(#ar)"/><path d="M139.7,190.81c3.8-1,4.89-1.83,4.89-1.83s0-.2,0-.55c-4.33-3.85-28.16-20.78-30.47-20.78C111.38,167.65,136.78,187.55,139.7,190.81Z" style="fill:url(#as)"/><path d="M41.52,178.65s24,1.75,29.5-8.25,1.25.5-5.5,2S41.52,178.65,41.52,178.65Z" style="fill:url(#at)"/><path d="M37,62.15l.06.17A25.05,25.05,0,0,0,36,52.88C34.53,49,34.66,41.43,33,37.64S30.63,29.12,29.42,25a30.54,30.54,0,0,0-1.9-4.6A22.4,22.4,0,0,0,24.78,22,1.37,1.37,0,0,0,25,23.31s4.5,7.5,5.66,11.5,1.78,8.54,3.49,12.4S35.62,58.3,37,62.15Z" style="fill:url(#au)"/><path d="M150.35,20.39a32.79,32.79,0,0,0-1.9,4.6c-1.2,4.13-1.81,8.71-3.56,12.65s-1.55,11.31-3,15.24a25.25,25.25,0,0,0-1.11,9.44l.05-.17c1.41-3.85,1.28-11.23,2.93-14.94s2.31-8.35,3.49-12.4,5.67-11.5,5.67-11.5a1.36,1.36,0,0,0,.16-1.33A21.48,21.48,0,0,0,150.35,20.39Z" style="fill:url(#av)"/></svg>