<?xml version="1.0" encoding="UTF-8"?>
<svg width="400px" height="442px" viewBox="0 0 400 442" version="1.1" xmlns="http://www.w3.org/2000/svg" xmlns:xlink="http://www.w3.org/1999/xlink">
    <!-- Generator: Sketch 63.1 (92452) - https://sketch.com -->
    <title>shirt</title>
    <desc>Created with Sketch.</desc>
    <defs>
        <radialGradient cx="24.3244332%" cy="58.1121876%" fx="24.3244332%" fy="58.1121876%" r="121.438488%" gradientTransform="translate(0.243244,0.581122),scale(1.000000,0.925264),rotate(87.885987),translate(-0.243244,-0.581122)" id="radialGradient-1">
            <stop stop-color="#242424" offset="0%"></stop>
            <stop stop-color="#232323" offset="3%"></stop>
            <stop stop-color="#101010" offset="42%"></stop>
            <stop stop-color="#1F1F1F" offset="77%"></stop>
            <stop stop-color="#2B2B2B" offset="100%"></stop>
        </radialGradient>
        <radialGradient cx="-16.3436727%" cy="70.2124982%" fx="-16.3436727%" fy="70.2124982%" r="389.824559%" gradientTransform="translate(-0.163437,0.702125),scale(1.000000,0.260367),translate(0.163437,-0.702125)" id="radialGradient-2">
            <stop stop-color="#101010" offset="1%"></stop>
            <stop stop-color="#101010" stop-opacity="0" offset="100%"></stop>
        </radialGradient>
        <radialGradient cx="127.811882%" cy="80.8822742%" fx="127.811882%" fy="80.8822742%" r="279.602119%" gradientTransform="translate(1.278119,0.808823),scale(1.000000,0.322552),translate(-1.278119,-0.808823)" id="radialGradient-3">
            <stop stop-color="#101010" offset="1%"></stop>
            <stop stop-color="#101010" stop-opacity="0" offset="100%"></stop>
        </radialGradient>
        <radialGradient cx="126.821827%" cy="116.059534%" fx="126.821827%" fy="116.059534%" r="397.178493%" gradientTransform="translate(1.268218,1.160595),scale(1.000000,0.251437),translate(-1.268218,-1.160595)" id="radialGradient-4">
            <stop stop-color="#101010" offset="1%"></stop>
            <stop stop-color="#101010" stop-opacity="0" offset="100%"></stop>
        </radialGradient>
        <radialGradient cx="128.376516%" cy="94.9057565%" fx="128.376516%" fy="94.9057565%" r="350.789608%" gradientTransform="translate(1.283765,0.949058),scale(0.937763,1.000000),translate(-1.283765,-0.949058)" id="radialGradient-5">
            <stop stop-color="#101010" offset="1%"></stop>
            <stop stop-color="#101010" stop-opacity="0" offset="100%"></stop>
        </radialGradient>
        <radialGradient cx="86.0908581%" cy="98.0088496%" fx="86.0908581%" fy="98.0088496%" r="121.592821%" gradientTransform="translate(0.860909,0.980088),scale(1.000000,0.986173),translate(-0.860909,-0.980088)" id="radialGradient-6">
            <stop stop-color="#101010" offset="1%"></stop>
            <stop stop-color="#101010" stop-opacity="0" offset="100%"></stop>
        </radialGradient>
        <radialGradient cx="28.9039597%" cy="-18.7687688%" fx="28.9039597%" fy="-18.7687688%" r="194.884514%" gradientTransform="translate(0.289040,-0.187688),scale(1.000000,0.775080),translate(-0.289040,0.187688)" id="radialGradient-7">
            <stop stop-color="#101010" offset="1%"></stop>
            <stop stop-color="#101010" stop-opacity="0" offset="100%"></stop>
        </radialGradient>
        <radialGradient cx="116.353775%" cy="70.2448583%" fx="116.353775%" fy="70.2448583%" r="390.065526%" gradientTransform="translate(1.163538,0.702449),scale(1.000000,0.260206),rotate(180.000000),translate(-1.163538,-0.702449)" id="radialGradient-8">
            <stop stop-color="#101010" offset="1%"></stop>
            <stop stop-color="#101010" stop-opacity="0" offset="100%"></stop>
        </radialGradient>
        <radialGradient cx="-27.8676531%" cy="80.9468214%" fx="-27.8676531%" fy="80.9468214%" r="273.211107%" gradientTransform="translate(-0.278677,0.809468),scale(1.000000,0.332186),rotate(180.000000),translate(0.278677,-0.809468)" id="radialGradient-9">
            <stop stop-color="#101010" offset="1%"></stop>
            <stop stop-color="#101010" stop-opacity="0" offset="100%"></stop>
        </radialGradient>
        <radialGradient cx="-26.7258316%" cy="116.059534%" fx="-26.7258316%" fy="116.059534%" r="396.960557%" gradientTransform="translate(-0.267258,1.160595),scale(1.000000,0.251575),rotate(180.000000),translate(0.267258,-1.160595)" id="radialGradient-10">
            <stop stop-color="#101010" offset="1%"></stop>
            <stop stop-color="#101010" stop-opacity="0" offset="100%"></stop>
        </radialGradient>
        <radialGradient cx="-28.6281344%" cy="94.9057565%" fx="-28.6281344%" fy="94.9057565%" r="350.789608%" gradientTransform="translate(-0.286281,0.949058),scale(0.938181,1.000000),rotate(180.000000),translate(0.286281,-0.949058)" id="radialGradient-11">
            <stop stop-color="#101010" offset="1%"></stop>
            <stop stop-color="#101010" stop-opacity="0" offset="100%"></stop>
        </radialGradient>
        <radialGradient cx="13.9091419%" cy="98.0088496%" fx="13.9091419%" fy="98.0088496%" r="121.592821%" gradientTransform="translate(0.139091,0.980088),scale(1.000000,0.986173),rotate(180.000000),translate(-0.139091,-0.980088)" id="radialGradient-12">
            <stop stop-color="#101010" offset="1%"></stop>
            <stop stop-color="#101010" stop-opacity="0" offset="100%"></stop>
        </radialGradient>
        <radialGradient cx="71.5714608%" cy="-18.7244342%" fx="71.5714608%" fy="-18.7244342%" r="445.019804%" gradientTransform="translate(0.715715,-0.187244),scale(1.000000,0.313280),rotate(180.000000),translate(-0.715715,0.187244)" id="radialGradient-13">
            <stop stop-color="#101010" offset="1%"></stop>
            <stop stop-color="#101010" stop-opacity="0" offset="100%"></stop>
        </radialGradient>
        <radialGradient cx="-16.7935951%" cy="57.9069988%" fx="-16.7935951%" fy="57.9069988%" r="311.466786%" gradientTransform="translate(-0.167936,0.579070),scale(1.000000,0.391176),rotate(87.930000),translate(0.167936,-0.579070)" id="radialGradient-14">
            <stop stop-color="#101010" offset="1%"></stop>
            <stop stop-color="#101010" stop-opacity="0" offset="100%"></stop>
        </radialGradient>
        <radialGradient cx="-26.924256%" cy="113.310011%" fx="-26.924256%" fy="113.310011%" r="312.349866%" gradientTransform="translate(-0.269243,1.133100),scale(1.000000,0.446962),translate(0.269243,-1.133100)" id="radialGradient-15">
            <stop stop-color="#101010" offset="1%"></stop>
            <stop stop-color="#101010" stop-opacity="0" offset="100%"></stop>
        </radialGradient>
        <radialGradient cx="31.6333395%" cy="-256.610559%" fx="31.6333395%" fy="-256.610559%" r="1036.63276%" gradientTransform="translate(0.316333,-2.566106),scale(1.000000,0.590295),translate(-0.316333,2.566106)" id="radialGradient-16">
            <stop stop-color="#101010" offset="1%"></stop>
            <stop stop-color="#101010" stop-opacity="0" offset="100%"></stop>
        </radialGradient>
        <radialGradient cx="31.6326531%" cy="-256.862745%" fx="31.6326531%" fy="-256.862745%" r="957.387755%" gradientTransform="translate(0.316327,-2.568627),scale(1.000000,0.640523),translate(-0.316327,2.568627)" id="radialGradient-17">
            <stop stop-color="#101010" offset="1%"></stop>
            <stop stop-color="#101010" stop-opacity="0" offset="100%"></stop>
        </radialGradient>
        <radialGradient cx="31.6599249%" cy="-256.9624%" fx="31.6599249%" fy="-256.9624%" r="643.841621%" gradientTransform="translate(0.316599,-2.569624),scale(1.000000,0.961562),translate(-0.316599,2.569624)" id="radialGradient-18">
            <stop stop-color="#101010" offset="1%"></stop>
            <stop stop-color="#101010" stop-opacity="0" offset="100%"></stop>
        </radialGradient>
        <radialGradient cx="105.454397%" cy="62.6271745%" fx="105.454397%" fy="62.6271745%" r="169.094123%" gradientTransform="translate(1.054544,0.626272),scale(1.000000,0.348010),translate(-1.054544,-0.626272)" id="radialGradient-19">
            <stop stop-color="#101010" offset="1%"></stop>
            <stop stop-color="#101010" stop-opacity="0" offset="100%"></stop>
        </radialGradient>
        <radialGradient cx="96.8221738%" cy="83.0237003%" fx="96.8221738%" fy="83.0237003%" r="129.31405%" gradientTransform="translate(0.968222,0.830237),scale(1.000000,0.450483),translate(-0.968222,-0.830237)" id="radialGradient-20">
            <stop stop-color="#101010" offset="0%"></stop>
            <stop stop-color="#101010" stop-opacity="0" offset="100%"></stop>
        </radialGradient>
        <radialGradient cx="4.97588182%" cy="54.2137073%" fx="4.97588182%" fy="54.2137073%" r="198.89967%" gradientTransform="translate(0.049759,0.542137),scale(1.000000,0.359298),translate(-0.049759,-0.542137)" id="radialGradient-21">
            <stop stop-color="#101010" offset="1%"></stop>
            <stop stop-color="#101010" stop-opacity="0" offset="100%"></stop>
        </radialGradient>
        <radialGradient cx="-15.160296%" cy="59.0629476%" fx="-15.160296%" fy="59.0629476%" r="326.416072%" gradientTransform="translate(-0.151603,0.590629),scale(1.000000,0.347321),rotate(87.930000),translate(0.151603,-0.590629)" id="radialGradient-22">
            <stop stop-color="#101010" offset="0%"></stop>
            <stop stop-color="#101010" stop-opacity="0" offset="100%"></stop>
        </radialGradient>
        <radialGradient cx="112.580224%" cy="84.7949767%" fx="112.580224%" fy="84.7949767%" r="140.063974%" gradientTransform="translate(1.125802,0.847950),scale(1.000000,0.586890),translate(-1.125802,-0.847950)" id="radialGradient-23">
            <stop stop-color="#101010" offset="1%"></stop>
            <stop stop-color="#101010" stop-opacity="0" offset="100%"></stop>
        </radialGradient>
        <radialGradient cx="7.78995961%" cy="66.4968372%" fx="7.78995961%" fy="66.4968372%" r="406.092276%" gradientTransform="translate(0.077900,0.664968),scale(0.367200,1.000000),translate(-0.077900,-0.664968)" id="radialGradient-24">
            <stop stop-color="#101010" offset="1%"></stop>
            <stop stop-color="#101010" stop-opacity="0" offset="100%"></stop>
        </radialGradient>
        <radialGradient cx="1.74844231%" cy="296.070812%" fx="1.74844231%" fy="296.070812%" r="653.324698%" gradientTransform="translate(0.017484,2.960708),scale(0.754979,1.000000),translate(-0.017484,-2.960708)" id="radialGradient-25">
            <stop stop-color="#101010" offset="1%"></stop>
            <stop stop-color="#101010" stop-opacity="0" offset="100%"></stop>
        </radialGradient>
        <radialGradient cx="58.3966797%" cy="-22.0004974%" fx="58.3966797%" fy="-22.0004974%" r="189.517617%" gradientTransform="translate(0.583967,-0.220005),scale(0.394641,1.000000),translate(-0.583967,0.220005)" id="radialGradient-26">
            <stop stop-color="#2B2B2B" offset="0%"></stop>
            <stop stop-color="#2A2A2A" offset="1%"></stop>
            <stop stop-color="#171717" offset="25%"></stop>
            <stop stop-color="#101010" offset="42%"></stop>
        </radialGradient>
        <radialGradient cx="12.6647007%" cy="148.026653%" fx="12.6647007%" fy="148.026653%" r="288.44285%" gradientTransform="translate(0.126647,1.480267),scale(0.530648,1.000000),translate(-0.126647,-1.480267)" id="radialGradient-27">
            <stop stop-color="#2B2B2B" offset="0%"></stop>
            <stop stop-color="#171717" offset="41%"></stop>
            <stop stop-color="#191919" offset="50%"></stop>
            <stop stop-color="#202020" offset="100%"></stop>
        </radialGradient>
        <radialGradient cx="87.4115323%" cy="148.026653%" fx="87.4115323%" fy="148.026653%" r="288.44285%" gradientTransform="translate(0.874115,1.480267),scale(0.530616,1.000000),rotate(180.000000),translate(-0.874115,-1.480267)" id="radialGradient-28">
            <stop stop-color="#2B2B2B" offset="0%"></stop>
            <stop stop-color="#171717" offset="41%"></stop>
            <stop stop-color="#191919" offset="50%"></stop>
            <stop stop-color="#202020" offset="100%"></stop>
        </radialGradient>
        <radialGradient cx="36.1920821%" cy="649.642005%" fx="36.1920821%" fy="649.642005%" r="1054.97216%" gradientTransform="translate(0.361921,6.496420),scale(0.112208,1.000000),translate(-0.361921,-6.496420)" id="radialGradient-29">
            <stop stop-color="#242424" offset="0%"></stop>
            <stop stop-color="#232323" offset="3%"></stop>
            <stop stop-color="#101010" offset="42%"></stop>
            <stop stop-color="#1F1F1F" offset="77%"></stop>
            <stop stop-color="#2B2B2B" offset="100%"></stop>
        </radialGradient>
        <radialGradient cx="36.2902756%" cy="649.42029%" fx="36.2902756%" fy="649.42029%" r="1564.05797%" gradientTransform="translate(0.362903,6.494203),scale(0.061594,1.000000),translate(-0.362903,-6.494203)" id="radialGradient-30">
            <stop stop-color="#242424" offset="0%"></stop>
            <stop stop-color="#232323" offset="3%"></stop>
            <stop stop-color="#101010" offset="42%"></stop>
            <stop stop-color="#1F1F1F" offset="77%"></stop>
            <stop stop-color="#2B2B2B" offset="100%"></stop>
        </radialGradient>
        <radialGradient cx="30.3867403%" cy="112.03125%" fx="30.3867403%" fy="112.03125%" r="185.15%" gradientTransform="translate(0.303867,1.120313),scale(0.558302,1.000000),translate(-0.303867,-1.120313)" id="radialGradient-31">
            <stop stop-color="#2B2B2B" offset="0%"></stop>
            <stop stop-color="#171717" offset="41%"></stop>
            <stop stop-color="#191919" offset="50%"></stop>
            <stop stop-color="#202020" offset="100%"></stop>
        </radialGradient>
        <radialGradient cx="69.6511628%" cy="112.03125%" fx="69.6511628%" fy="112.03125%" r="185.15%" gradientTransform="translate(0.696512,1.120313),scale(0.558140,1.000000),rotate(180.000000),translate(-0.696512,-1.120313)" id="radialGradient-32">
            <stop stop-color="#2B2B2B" offset="0%"></stop>
            <stop stop-color="#171717" offset="41%"></stop>
            <stop stop-color="#191919" offset="50%"></stop>
            <stop stop-color="#202020" offset="100%"></stop>
        </radialGradient>
        <radialGradient cx="45.4307884%" cy="-10.9569028%" fx="45.4307884%" fy="-10.9569028%" r="43.8050542%" gradientTransform="translate(0.454308,-0.109569),scale(0.985350,1.000000),translate(-0.454308,0.109569)" id="radialGradient-33">
            <stop stop-color="#E83D3D" offset="0%"></stop>
            <stop stop-color="#2A2A2A" offset="1%"></stop>
            <stop stop-color="#171717" offset="25%"></stop>
            <stop stop-color="#101010" offset="100%"></stop>
        </radialGradient>
        <radialGradient cx="-17.5112217%" cy="57.9514044%" fx="-17.5112217%" fy="57.9514044%" r="111.366914%" gradientTransform="translate(-0.175112,0.579514),scale(1.000000,0.964299),rotate(83.299404),translate(0.175112,-0.579514)" id="radialGradient-34">
            <stop stop-color="#242424" offset="0%"></stop>
            <stop stop-color="#232323" offset="3%"></stop>
            <stop stop-color="#101010" offset="42%"></stop>
            <stop stop-color="#1F1F1F" offset="77%"></stop>
            <stop stop-color="#2B2B2B" offset="100%"></stop>
        </radialGradient>
        <radialGradient cx="45.4411663%" cy="-94.1966338%" fx="45.4411663%" fy="-94.1966338%" r="494.105873%" gradientTransform="translate(0.454412,-0.941966),scale(0.219546,1.000000),translate(-0.454412,0.941966)" id="radialGradient-35">
            <stop stop-color="#2B2B2B" offset="0%"></stop>
            <stop stop-color="#1A1A1A" offset="29%"></stop>
            <stop stop-color="#070707" offset="71%"></stop>
            <stop stop-color="#000000" offset="100%"></stop>
        </radialGradient>
        <radialGradient cx="51.2548004%" cy="-61.7589829%" fx="51.2548004%" fy="-61.7589829%" r="608.263696%" gradientTransform="translate(0.512548,-0.617590),scale(0.121576,1.000000),translate(-0.512548,0.617590)" id="radialGradient-36">
            <stop stop-color="#2B2B2B" offset="0%"></stop>
            <stop stop-color="#1A1A1A" offset="29%"></stop>
            <stop stop-color="#070707" offset="71%"></stop>
            <stop stop-color="#000000" offset="100%"></stop>
        </radialGradient>
        <radialGradient cx="47.1888724%" cy="-26.7685908%" fx="47.1888724%" fy="-26.7685908%" r="635.757953%" gradientTransform="translate(0.471889,-0.267686),scale(0.139229,1.000000),translate(-0.471889,0.267686)" id="radialGradient-37">
            <stop stop-color="#2B2B2B" offset="0%"></stop>
            <stop stop-color="#1A1A1A" offset="29%"></stop>
            <stop stop-color="#070707" offset="71%"></stop>
            <stop stop-color="#000000" offset="100%"></stop>
        </radialGradient>
        <radialGradient cx="51.7926275%" cy="103.972898%" fx="51.7926275%" fy="103.972898%" r="379.056005%" gradientTransform="translate(0.517926,1.039729),scale(0.301913,1.000000),translate(-0.517926,-1.039729)" id="radialGradient-38">
            <stop stop-color="#2B2B2B" offset="0%"></stop>
            <stop stop-color="#171717" offset="41%"></stop>
            <stop stop-color="#191919" offset="50%"></stop>
            <stop stop-color="#202020" offset="96%"></stop>
        </radialGradient>
        <radialGradient cx="32.0309869%" cy="46.049052%" fx="32.0309869%" fy="46.049052%" r="297.607243%" gradientTransform="translate(0.320310,0.460491),scale(0.240273,1.000000),translate(-0.320310,-0.460491)" id="radialGradient-39">
            <stop stop-color="#2B2B2B" offset="0%"></stop>
            <stop stop-color="#171717" offset="41%"></stop>
            <stop stop-color="#191919" offset="50%"></stop>
            <stop stop-color="#202020" offset="100%"></stop>
        </radialGradient>
        <radialGradient cx="31.6599017%" cy="-256.046243%" fx="31.6599017%" fy="-256.046243%" r="834.87865%" gradientTransform="translate(0.316599,-2.560462),scale(0.203579,1.000000),translate(-0.316599,2.560462)" id="radialGradient-40">
            <stop stop-color="#2B2B2B" offset="0%"></stop>
            <stop stop-color="#171717" offset="41%"></stop>
            <stop stop-color="#191919" offset="50%"></stop>
            <stop stop-color="#202020" offset="96%"></stop>
        </radialGradient>
    </defs>
    <g id="Page-1" stroke="none" stroke-width="1" fill="none" fill-rule="evenodd">
        <g id="Desktop-HD" transform="translate(-520.000000, -291.000000)">
            <g id="shirt" transform="translate(520.000000, 291.000000)">
                <path d="M146.350282,0.225988701 C149.626589,0.303363929 152.863185,0.961395223 155.909605,2.16949153 C156.329298,2.35835351 156.492097,2.46728411 156.453814,2.51944144 C156.488345,2.54976317 156.502176,2.57308145 156.496814,2.59076776 C156.525391,2.6006118 156.556443,2.61101449 156.587571,2.62146893 C185.306129,9.20678129 215.156229,9.0830503 243.819209,2.25988701 L243.851815,2.25113438 C243.886269,2.24194307 243.947461,2.2257577 244.032684,2.20374552 C247.747116,0.545201348 254.668823,-0.263679517 256.903955,0.563319345 C258.970301,1.32786761 265.760102,8.25179926 266.907925,9.43214494 L266.915254,9.42372881 C266.915254,9.42372881 344.135593,48.2033898 344.881356,49.7175141 C344.900062,49.7665807 344.917449,49.8159523 344.933526,49.8655812 C346.466768,50.4364407 349.164833,52.5568474 351.082118,60.2259887 C353.906977,71.5254237 401.364604,169.830508 399.669689,172.655367 C397.974773,175.480226 374.24596,195.254237 323.398502,199.774011 L323.390274,199.76286 C323.184272,199.482118 319.150185,193.896391 315.806328,182.518408 C316.438851,208.627482 319.715584,368.230563 322.870056,387.887006 C324.112994,395.751412 327.570621,405.491525 326.372881,413.514124 C325.69198,417.999788 325.434725,422.539576 325.60452,427.073446 C325.60452,427.073446 315.457627,434.983051 264.225989,437.242938 C212.99435,439.502825 199.841808,441.378531 199.841808,441.378531 C199.841808,441.378531 186.689266,439.502825 135.457627,437.242938 C84.2259887,434.983051 74.0564972,427.073446 74.0564972,427.073446 C74.2409827,422.540231 73.991257,417.999764 73.3107345,413.514124 C72.0903955,405.491525 75.5480226,395.751412 76.8135593,387.887006 C79.3898305,371.683616 84.7683616,291.367232 82.5084746,238.19209 C81.9435028,224.632768 85.8983051,204.135593 85.8983051,200.903955 C86.1302641,193.873812 84.77028,185.78707 84.1875974,181.77153 C80.7134406,193.960573 76.3543137,199.774011 76.3132073,199.774011 C25.4657497,195.254237 1.69173839,175.480226 0.0420208796,172.655367 C-1.60769663,169.830508 45.8499305,71.5706215 48.6747892,60.2711864 C50.598328,52.5770316 53.3077469,50.4678657 54.8408971,49.9052293 C54.8620741,49.8272774 54.8870581,49.7494515 54.9152542,49.6723164 C55.6610169,48.1581921 132.881356,9.37853107 132.881356,9.37853107 C132.906496,9.40361046 132.931669,9.42871535 132.956874,9.45384549 C134.034336,8.3495628 140.902652,1.353871 142.983051,0.563319345 C143.699637,0.291016452 144.900207,0.191402364 146.322499,0.236377675 Z" id="shirt-bg" fill="#2D3748" fill-rule="nonzero"></path>
                <g id="shirt-shadows" transform="translate(0.000000, 9.378531)" fill-rule="nonzero">
                    <path d="M132.881356,0 C142.259887,9.3559322 156.20339,22.259887 168.881356,26.440678 C189.017845,32.7906431 210.620573,32.7906431 230.757062,26.440678 C243.59322,22.3954802 257.559322,9.40112994 266.915254,0.0451977401 C266.915254,0.0451977401 344.135593,38.8248588 344.881356,40.3389831 C344.900094,40.3881353 344.91751,40.4375939 344.93361,40.4873104 C346.466768,41.0579096 349.164833,43.1783163 351.082118,50.8474576 C353.906977,62.1468927 401.364604,160.451977 399.669689,163.276836 C397.974773,166.101695 374.24596,185.875706 323.398502,190.39548 C323.398502,190.39548 319.238771,184.819289 315.806328,173.139877 C316.438927,199.252662 319.71562,358.85226 322.870056,378.508475 C324.112994,386.372881 327.570621,396.112994 326.372881,404.135593 C325.69198,408.621257 325.434725,413.161045 325.60452,417.694915 C325.60452,417.694915 315.457627,425.60452 264.225989,427.864407 C212.99435,430.124294 199.841808,432 199.841808,432 C199.841808,432 186.689266,430.124294 135.457627,427.864407 C84.2259887,425.60452 74.0564972,417.694915 74.0564972,417.694915 C74.2409827,413.1617 73.991257,408.621233 73.3107345,404.135593 C72.0903955,396.112994 75.5480226,386.372881 76.8135593,378.508475 C79.3898305,362.305085 84.7683616,281.988701 82.5084746,228.813559 C81.9435028,215.254237 85.8983051,194.757062 85.8983051,191.525424 C86.1302641,184.495281 84.77028,176.408539 84.1875974,172.392999 C80.8010685,184.274258 76.5741101,190.097527 76.3245168,190.384328 L76.3132073,190.39548 C25.4657497,185.875706 1.69173839,166.101695 0.0420208796,163.276836 C-1.60769663,160.451977 45.8499305,62.1920904 48.6747892,50.8926554 C50.5987448,43.196833 53.3089214,41.0884207 54.8418937,40.5263326 C54.8622859,40.4480868 54.8871776,40.3705936 54.9152542,40.2937853 C55.6610169,38.779661 132.881356,0 132.881356,0 Z" id="shirt-bg-shadow" fill="url(#radialGradient-1)" opacity="0.2"></path>
                    <g id="shape-shadows" opacity="0.403259859" transform="translate(8.561795, 40.283741)">
                        <path d="M74.94103,90.7997489 C71.7545893,82.0991839 72.0483746,65.4212178 68.319561,57.037037 C64.5907475,48.6528562 63.0992221,38.1669805 60.4325554,29.0144382 C57.7658887,19.8618958 47.6415949,3.0257376 47.6415949,3.0257376 C47.0299207,2.16176419 46.9020656,1.04516215 47.3026119,0.0652856246 C47.3026119,0.0652856246 43.8901825,-0.499686127 41.1557192,6.84494664 C41.3208477,6.82506036 41.4877659,6.82506036 41.6528944,6.84494664 C41.21428,7.91167177 41.3687716,9.13043925 42.059674,10.0539862 C42.059674,10.0539862 55.799787,21.7150031 58.6020469,31.3421218 C61.4043068,40.9692404 62.6698435,53.9409918 66.7828379,63.2743252 C70.760239,72.3138732 67.7545893,94.3025738 71.1444198,103.56811 C75.1896175,114.641557 73.720691,127.861896 72.9523294,139.726303 C74.3793482,136.04308 75.5571448,132.26809 76.4777531,128.426868 C77.0427249,116.223478 79.1896175,102.279975 74.94103,90.7997489 Z" id="Path-Copy-46" fill="url(#radialGradient-2)"></path>
                        <path d="M72.3163842,87.6710609 C70.0564972,86.5411174 56.0451977,89.569366 55.9322034,82.0213434 C55.5480226,57.9309479 37.4689266,5.18518519 41.4237288,16.4846202 C45.3785311,27.7840552 51.0056497,89.2755807 48.9717514,96.349027 C43.5932203,115.08349 76.6327684,128.28123 76.6327684,128.28123 C76.8135593,124.326428 77.1751412,120.168236 77.4237288,115.987445 C73.4689266,110.654112 73.9887006,88.5072191 72.3163842,87.6710609 Z" id="Path-Copy-48" fill="url(#radialGradient-3)"></path>
                        <path d="M26.4180791,42.9930948 C23.2110693,50.0719372 21.8281253,57.8412856 22.3954802,65.5919648 C23.480226,80.7558067 26.0564972,108.778406 46.5988701,119.671061 C61.1525424,127.354677 24.8587571,104.416824 28.8135593,68.2586315 C31.277404,48.8169555 35.0524857,29.5640391 40.1129944,10.6315129 C39.1864407,14.2247332 33.559322,27.1738858 26.4180791,42.9930948 Z" id="Path-Copy-49" fill="url(#radialGradient-4)"></path>
                        <path d="M47.1638418,105.750157 C47.1638418,105.750157 60.4519774,131.173886 62.9830508,132.868801 C63.0960452,132.868801 62.5762712,135.467671 56.3163842,134.29253 C45.8531073,132.303829 27.3898305,126.337728 28.2485876,126.744507 C45.3785311,135.038293 61.7627119,138.043942 61.4011299,138.812304 C59.7966102,141.795355 57.6497175,144.010044 58.1920904,145.591965 C59.7288136,149.998745 68.6553672,148.552417 67.7966102,150.111739 C67.7966102,150.111739 70.9378531,144.507219 72.8813559,140.123038 C74.4570549,137.017111 75.3581231,133.613076 75.5254237,130.134338 C75.5254237,130.134338 52.4971751,113.953547 47.1638418,105.750157 Z" id="Path-Copy-50" fill="url(#radialGradient-5)"></path>
                        <path d="M40.2937853,125.433773 C40.2937853,125.433773 25.3785311,114.518519 22.5988701,96.4394225 C19.819209,78.3603264 13.559322,85.1399874 9.60451977,89.6597615 C5.64971751,94.1795355 4.41580231e-14,106.043942 4.41580231e-14,106.043942 C4.41580231e-14,106.043942 19.9548023,120.529818 40.2937853,125.433773 Z" id="Path-Copy-51" fill="url(#radialGradient-6)"></path>
                        <path d="M71.7514124,91.1512869 C71.7514124,91.1512869 67.2316384,76.1004394 63.8418079,76.1004394 C63.0420096,76.1029984 62.2589982,76.3300718 61.5819209,76.7558067 C60.4234822,77.4551848 59.8534544,78.8258616 60.1743383,80.1404504 C60.4952222,81.4550391 61.6326645,82.4089319 62.9830508,82.4959196 L62.9830508,82.4959196 C64.2259887,82.4959196 67.2316384,84.3716259 71.7514124,91.1512869 Z" id="Path-Copy-52" fill="url(#radialGradient-7)"></path>
                        <path d="M308.075298,90.8449466 C311.261738,82.1443817 310.967953,65.4664156 314.696766,57.0822348 C318.42558,48.698054 319.917105,38.2121783 322.583772,29.0596359 C325.250439,19.9070935 335.397331,3.07093534 335.397331,3.07093534 C336.037139,2.20199661 336.17438,1.06117461 335.758913,0.0652856246 C335.758913,0.0652856246 339.171343,-0.499686127 341.905806,6.84494664 C341.748237,6.82509478 341.588799,6.82509478 341.43123,6.84494664 C341.85631,7.9134294 341.702685,9.12536029 341.02445,10.0539862 C341.02445,10.0539862 327.284337,21.7150031 324.459478,31.3421218 C321.63462,40.9692404 320.391682,53.9409918 316.278687,63.2743252 C312.301286,72.3138732 315.306936,94.3025738 311.917105,103.56811 C307.871908,114.641557 309.340834,127.861896 310.131795,139.726303 C308.704776,136.04308 307.526979,132.26809 306.606371,128.426868 C306.0188,116.268675 303.939704,102.325173 308.075298,90.8449466 Z" id="Path-Copy-55" fill="url(#radialGradient-8)"></path>
                        <path d="M310.316933,87.6710609 C312.57682,86.5411174 326.58812,89.569366 326.701114,82.0213434 C327.085295,57.9309479 345.164391,5.18518519 341.209589,16.4846202 C337.254786,27.7840552 340.350831,85.1399874 342.38473,92.1908349 C347.740662,110.834903 306.023148,128.190835 306.023148,128.190835 C305.819758,124.236033 305.480775,120.077841 305.232187,115.89705 C309.164391,110.654112 308.644617,88.5072191 310.316933,87.6710609 Z" id="Path-Copy-57" fill="url(#radialGradient-9)"></path>
                        <path d="M356.215238,42.9930948 C359.418962,50.0733763 360.809186,57.8399906 360.260436,65.5919648 C359.153091,80.7558067 356.57682,108.778406 336.034447,119.671061 C321.480775,127.354677 357.77456,104.416824 353.819758,68.2586315 C351.355913,48.8169555 347.580832,29.5640391 342.520323,10.6315129 C343.446877,14.2247332 349.096594,27.1738858 356.215238,42.9930948 Z" id="Path-Copy-58" fill="url(#radialGradient-10)"></path>
                        <path d="M335.469476,105.750157 C335.469476,105.750157 322.18134,131.173886 319.650266,132.868801 C319.537272,132.868801 320.057046,135.467671 326.429928,134.29253 C336.893204,132.303829 355.356481,126.337728 354.475125,126.744507 C337.345182,135.038293 320.961001,138.043942 321.345182,138.812304 C322.927103,141.795355 325.073995,144.010044 324.531622,145.591965 C323.017498,149.998745 314.068346,148.552417 314.927103,150.111739 C314.927103,150.111739 311.78586,144.507219 309.842357,140.123038 C308.264099,137.019317 307.370156,133.613088 307.220888,130.134338 C307.220888,130.134338 330.090944,113.953547 335.469476,105.750157 Z" id="Path-Copy-59" fill="url(#radialGradient-11)"></path>
                        <path d="M342.339532,125.433773 C342.339532,125.433773 357.209589,114.518519 360.034447,96.4394225 C362.859306,78.3603264 369.073995,85.1399874 373.028798,89.6597615 C376.9836,94.1795355 382.633317,106.043942 382.633317,106.043942 C382.633317,106.043942 362.678515,120.529818 342.339532,125.433773 Z" id="Path-Copy-60" fill="url(#radialGradient-12)"></path>
                        <path d="M310.881905,91.1512869 C310.881905,91.1512869 313.751961,67.0608914 317.141792,67.0608914 C317.932752,67.0608914 328.147442,32.0100439 328.825408,32.3942247 C331.401679,33.908349 322.565521,82.428123 319.58247,82.4959196 L319.58247,82.4959196 C318.429928,82.4959196 315.401679,84.3716259 310.881905,91.1512869 Z" id="Path-Copy-61" fill="url(#radialGradient-13)"></path>
                        <path d="M99.4382051,87.6710609 C94.9184311,84.5072191 87.799787,100.077841 84.7489396,110.269931 C80.5229509,124.642812 80.7489396,136.48462 77.0427249,142.947897 C77.3318283,145.702565 77.4525799,148.472306 77.4043068,151.241682 C84.7493881,137.317942 91.2838182,122.981432 96.9749283,108.303829 C98.1500695,105.026993 111.167019,65.3659761 111.867584,62.608914 C113.291312,56.8236033 101.426906,89.0721908 99.4382051,87.6710609 Z" id="Path-Copy-75" fill="url(#radialGradient-14)"></path>
                        <path d="M309.223516,97.9309479 C309.223516,97.9309479 309.223516,73.0721908 309.991877,66.2925298 C310.760239,59.5128688 295.664194,34.6541117 293.404307,33.1625863 C291.14442,31.6710609 277.585098,25.6145637 279.099222,30.1343377 C280.613346,34.6541117 304.229166,70.1117389 304.229166,70.1117389 L285.13312,36.2134338 C285.13312,36.2134338 291.912781,36.9591965 294.918431,41.4789705 C297.924081,45.9987445 304.703742,62.5863151 305.472103,70.1117389 C306.240465,77.6371626 309.223516,97.9309479 309.223516,97.9309479 Z" id="Path-Copy-76" fill="url(#radialGradient-15)"></path>
                        <path d="M311.867584,54.0665411 C311.867584,54.0665411 308.477753,34.8575016 299.438205,29.7727558 C290.398657,24.68801 268.929731,21.8631513 273.449505,9.43377276 C276.13877,2.04394225 288.703742,12.2586315 296.048375,19.0382925 C296.929731,19.8518519 297.969279,20.868801 299.121821,22.0439422 C313.087646,36.3551951 318.38228,57.0171829 313.020126,76.2812304 L312.432555,78.428123 L311.867584,54.0665411 Z" id="Path-Copy-78" fill="url(#radialGradient-16)"></path>
                        <path d="M76.8393351,107.738858 C76.8393351,107.738858 81.3591091,86.2699309 81.3591091,78.3603264 C81.3591091,70.4507219 128.816736,21.2981795 128.816736,21.2981795 C128.816736,21.2981795 92.6585441,50.6767106 87.0088266,58.0213434 C81.3591091,65.3659761 75.7093915,73.2755807 75.7093915,78.3603264 C75.7093915,83.4450722 73.4495045,100.394225 73.4495045,100.394225 L76.8393351,107.738858 Z" id="Path-Copy-79" fill="url(#radialGradient-17)"></path>
                        <path d="M54.1274706,16.4394225 C54.1274706,16.4394225 65.9240808,27.8744507 65.9240808,36.168236 C65.9240808,44.4620213 70.4438548,67.0608914 75.7093915,68.5524168 C80.9749283,70.0439422 93.0427249,42.2021343 102.082273,36.9139987 C111.121821,31.6258632 91.5286006,33.908349 89.2687136,39.1738858 C87.0088266,44.4394225 72.7037418,33.908349 71.1896175,30.1343377 C69.6754932,26.3603264 60.4099565,14.7671061 54.1274706,16.4394225 Z" id="Path-Copy-80" fill="url(#radialGradient-18)"></path>
                        <path d="M133.720691,155.987445 C131.460804,144.68801 120.907132,180.846202 103.573798,202.699309 C95.0341706,213.058742 85.2504569,222.326325 74.4438548,230.29253 C73.8336853,276.620213 70.2856627,325.953547 68.319561,338.269931 C67.799787,341.433773 66.9636288,344.913999 66.059674,348.439422 L68.9297305,345.817954 C71.1896175,345.026993 135.980578,167.28688 133.720691,155.987445 Z" id="Path-Copy-81" fill="url(#radialGradient-19)"></path>
                        <path d="M84.7489396,154.428123 C79.9965459,162.952479 76.4017927,172.072361 74.059674,181.546767 C74.059674,184.032643 73.9240808,186.428123 74.059674,188.642812 C74.6472447,202.654112 74.6924424,218.563716 74.421256,234.699309 C84.5455497,216.48462 104.477753,186.382925 111.912781,170.360326 C150.285663,87.3998745 106.602047,116.010044 84.7489396,154.428123 Z" id="Path-Copy-82" fill="url(#radialGradient-20)"></path>
                        <path d="M297.924081,139.241682 C292.319561,131.241682 285.110521,135.241682 277.901482,125.68236 C270.692442,116.123038 258.692442,104.055242 262.692442,122.473321 C265.517301,135.445072 293.720691,206.337728 310.15007,247.173886 C309.200917,214.631513 308.387358,180.507219 307.890183,157.411174 C303.596397,148.981795 299.754589,141.863151 297.924081,139.241682 Z" id="Path-Copy-83" fill="url(#radialGradient-21)"></path>
                        <path d="M276.839335,253.863151 C280.613346,263.671061 293.404307,271.196485 292.658544,284.010044 C291.912781,296.823603 288.884533,323.919648 288.884533,323.919648 L316.816736,349.908349 C315.980578,345.840552 314.94103,341.840552 314.376058,338.224733 C313.472103,332.552417 312.54555,315.241682 311.686793,292.846202 C302.353459,268.190835 290.850634,237.411174 290.398657,234.29253 C289.652894,229.004394 273.065324,244.123038 276.839335,253.863151 Z" id="Path-Copy-84" fill="url(#radialGradient-22)"></path>
                        <path d="M306.918431,97.4563716 L294.172668,63.3320778 C294.172668,63.3320778 285.13312,57.2981795 276.093572,61.0721908 C267.054024,64.8462021 270.805437,74.6315129 276.093572,84.4168236 C281.381708,94.2021343 295.664194,107.015694 305.472103,119.829253 C305.901482,120.394225 306.33086,121.026993 306.73764,121.659761 C305.832875,113.613603 305.893569,105.488116 306.918431,97.4563716 L306.918431,97.4563716 Z" id="Path-Copy-85" fill="url(#radialGradient-23)"></path>
                        <path d="M95.0992221,384.959196 C103.370408,386.043942 113.788488,386.993095 126.963629,387.580665 C178.172668,389.840552 191.34781,391.716259 191.34781,391.716259 C191.34781,391.716259 204.500352,389.840552 255.73199,387.580665 C267.506886,387.150987 279.251519,386.110037 290.918431,384.462021 L247.460804,332.258632 C247.460804,332.258632 185.698092,317.185185 171.370408,320.213434 C157.042725,323.241682 160.070973,340.552417 139.73199,361.637163 C130.466454,371.196485 112.387358,379.060891 95.0992221,384.959196 Z" id="Path-Copy-86" fill="url(#radialGradient-24)"></path>
                        <path d="M306.059674,381.546767 C314.647245,379.28688 317.110521,377.411174 317.110521,377.411174 C317.110521,377.411174 317.110521,376.959196 317.110521,376.168236 C307.325211,367.467671 253.472103,329.207784 248.251764,329.207784 C242.059674,329.207784 299.460804,374.179535 306.059674,381.546767 Z" id="Path-Copy-87" fill="url(#radialGradient-25)"></path>
                        <path d="M84.1839678,354.066541 C84.1839678,354.066541 138.421256,358.021343 150.850634,335.422473 C163.280013,312.823603 153.675493,336.552417 138.421256,339.942247 C123.167019,343.332078 84.1839678,354.066541 84.1839678,354.066541 Z" id="Path-Copy-88" fill="url(#radialGradient-26)"></path>
                    </g>
                </g>
                <path d="M326.59887,412.971751 C326.463277,413.152542 326.463277,413.333333 326.508475,413.514124 C325.827573,417.999788 325.570318,422.539576 325.740113,427.073446 C325.740113,427.073446 315.59322,434.983051 264.361582,437.242938 C213.129944,439.502825 199.977401,441.378531 199.977401,441.378531 C199.710542,441.340979 186.312542,439.480226 135.59322,437.242938 C84.3615819,434.983051 74.1920904,427.073446 74.1920904,427.073446 C74.3540934,423.092677 74.1812678,419.106315 73.6759258,415.156398 C73.6114232,415.127936 73.5507273,415.100479 73.4915254,415.073446 L73.4915254,415.073446 L73.1977401,413.514124 C73.1865464,413.333507 73.1865464,413.152369 73.1977401,412.971751 C73.2758503,413.008911 73.3569379,413.046954 73.4410747,413.08585 L73.4463277,412.971751 C78.1016949,415.186441 93.3333333,420.542373 134.327684,422.350282 C183.590273,424.528342 198.411043,426.363396 199.894885,426.559029 C201.318573,426.365437 215.989244,424.489482 265.468927,422.350282 C306.463277,420.542373 321.672316,415.231638 326.350282,412.971751 L326.350282,412.971751 L326.351088,413.089619 C326.436776,413.049469 326.519345,413.010169 326.59887,412.971751 Z M6.48269885,155.683616 C11.7482356,161.039548 36.200213,178.531073 83.0928683,184.858757 C81.5804514,190.13748 79.2958613,195.163578 76.3132073,199.774011 C25.4657497,195.254237 1.73693613,175.480226 0.0420208796,172.655367 C-0.342159911,171.954802 2.30190789,165.355932 6.48269885,155.683616 Z M393.274208,155.683616 C397.477598,165.355932 400.053869,171.954802 399.64709,172.655367 C397.952174,175.480226 374.223361,195.254237 323.375903,199.774011 C320.403305,195.158086 318.119409,190.133515 316.596242,184.858757 C363.669689,178.531073 388.008672,161.039548 393.274208,155.683616 Z M265.943503,8.29378531 L267.00565,9.37853107 L266.968892,9.40547188 C268.878932,10.364912 321.271442,36.6886116 338.99762,46.2713958 C340.224304,46.8808298 341.426249,47.5453101 342.598147,48.2596417 C343.95191,49.0333359 344.727735,49.5262436 344.79096,49.6723164 C345.206427,50.6682054 345.069186,51.8090274 344.429379,52.6779661 C344.429379,52.6779661 338.508475,62.5536723 334.531073,71.2542373 C334.522303,71.2505342 334.513538,71.2468259 334.504778,71.2431124 C333.277395,73.9300994 332.234658,76.5114164 331.606708,78.6666667 C328.940041,87.819209 327.448516,98.3050847 323.719702,106.689266 C319.990889,115.073446 320.284674,131.751412 317.098233,140.451977 L317.098233,140.451977 L316.985239,140.836158 C316.463346,133.630368 317.314584,126.391016 319.493714,119.502825 C322.77055,110.621469 322.318572,93.9661017 326.273375,85.0621469 C328.454658,80.1511431 329.852212,74.8001508 331.122023,69.4224792 C326.16118,66.1643564 323.196075,61.5518287 320.338983,60.2259887 C311.864407,56.2711864 283.435028,44.2033898 267.615819,40.2485876 C265.315062,39.6773651 261.674925,39.475029 257.295988,39.4712268 L256.694338,39.4719229 C246.794423,39.5028694 233.364935,40.4802792 223.041634,40.5219394 L222.413533,40.5233048 C218.044781,40.5244544 214.271427,40.3466763 211.615819,39.8418079 L211.70195,39.8584205 C201.618318,41.0219324 191.404224,40.6880651 181.395464,38.8568184 C173.136654,39.6248553 162.278132,40.7983367 149.423729,42.7118644 C121.920463,46.7123395 77.5982026,62.2205474 67.7764659,65.7313656 C69.3763863,72.4220872 70.9350146,79.233934 73.4877411,85.0621469 C77.2391535,93.6271186 76.9453682,110.734463 80.2674021,119.502825 C82.4192467,126.396062 83.2323574,133.637349 82.6628823,140.836158 L82.6628823,140.836158 L82.5272891,140.451977 C79.408645,131.751412 79.9510179,115.412429 76.0866112,106.689266 C72.2222044,97.9661017 70.8210744,87.7062147 68.1996055,78.6666667 C67.3013309,75.5691681 65.5167947,71.5429522 63.5588431,67.5881862 L63.5480226,67.5932203 C60.7200348,61.8861365 57.5324548,56.3074784 56.1345373,53.9068641 L56.0726845,53.8019694 C55.6518309,53.0832758 55.408645,52.6779661 55.408645,52.6779661 C55.2959874,52.5365005 55.1970221,52.3868936 55.1120724,52.2310703 C54.6837196,51.4541456 54.6048866,50.5213773 54.9152542,49.6723164 C54.9991945,49.5018923 56.051984,48.8593545 57.8544593,47.8531409 C58.917306,47.2284328 60.0001733,46.6451328 61.1035603,46.1016949 L60.460597,46.4254518 C78.0004336,36.950078 131.177669,10.2342808 132.841415,9.39859194 L132.813559,9.37853107 L133.875706,8.29378531 C143.231638,17.559322 156.655367,29.8079096 168.971751,33.6949153 C189.10824,40.0448804 210.710969,40.0448804 230.847458,33.6949153 C243.163842,29.8079096 256.542373,17.559322 265.943503,8.29378531 L265.943503,8.29378531 Z" id="accent-color" fill="#2D3748" fill-rule="nonzero"></path>
                <g id="shadows" fill-rule="nonzero">
                    <path d="M6.47762238,155.457627 C2.29683142,165.129944 -0.347236374,171.728814 0.0369444167,172.429379 C1.73185967,175.254237 25.4606732,195.028249 76.3081309,199.548023 C79.2907848,194.937589 81.575375,189.911491 83.0877919,184.632768 C36.1951365,178.305085 11.7431591,160.813559 6.47762238,155.457627 Z" id="Path-Copy-131" fill="url(#radialGradient-27)" opacity="0.258138021"></path>
                    <path d="M393.269132,155.457627 C397.472522,165.129944 400.048793,171.728814 399.642013,172.429379 C397.947098,175.254237 374.218284,195.028249 323.370827,199.548023 C320.398228,194.932098 318.114332,189.907526 316.591166,184.632768 C363.664612,178.305085 388.003595,160.813559 393.269132,155.457627 Z" id="Path-Copy-130" fill="url(#radialGradient-28)" opacity="0.258138021"></path>
                    <path d="M326.593794,412.745763 C321.915827,415.00565 306.706788,420.316384 265.712438,422.124294 C213.441251,424.384181 200.017522,426.350282 200.017522,426.350282 C200.017522,426.350282 186.4582,424.429379 134.322607,422.124294 C93.3282569,420.316384 78.0966185,414.960452 73.4412512,412.745763 C73.4300576,412.92638 73.4300576,413.107518 73.4412512,413.288136 C74.1217738,417.773775 74.3714995,422.314243 74.1870139,426.847458 C74.1870139,426.847458 84.3565055,434.757062 135.588144,437.016949 C186.819782,439.276836 199.972325,441.152542 199.972325,441.152542 C199.972325,441.152542 213.124867,439.276836 264.356505,437.016949 C315.588144,434.757062 325.735037,426.847458 325.735037,426.847458 C325.565242,422.313588 325.822496,417.773799 326.503398,413.288136 C326.4582,413.107345 326.4582,412.926554 326.593794,412.745763 Z" id="Path-Copy-129" fill="url(#radialGradient-29)" opacity="0.258138021"></path>
                    <path d="M73.486449,414.847458 C78.4356015,417.107345 93.825432,422.327684 134.119217,424.112994 C186.367805,426.372881 199.814133,428.338983 199.814133,428.338983 C199.814133,428.338983 213.237861,426.418079 265.509048,424.112994 C305.802833,422.327684 321.192664,417.129944 326.119217,414.847458 C326.119217,414.327684 326.254811,413.80791 326.345206,413.288136 C326.345206,413.107345 326.345206,412.926554 326.345206,412.745763 C321.66724,415.00565 306.4582,420.316384 265.46385,422.124294 C213.192664,424.384181 199.768935,426.350282 199.768935,426.350282 C199.768935,426.350282 186.209613,424.429379 134.07402,422.124294 C93.0796693,420.316384 77.8480309,414.960452 73.1926637,412.745763 C73.18147,412.92638 73.18147,413.107518 73.1926637,413.288136 L73.486449,414.847458 Z" id="Path-Copy-126" fill="url(#radialGradient-30)" opacity="0.258138021"></path>
                    <path d="M82.0934416,186.508475 C80.7754242,190.78755 79.0263416,194.921745 76.8731026,198.847458 C79.6038567,194.402127 81.7532166,189.624927 83.2685828,184.632768 C36.1951365,178.305085 11.7431591,160.813559 6.47762238,155.457627 L5.55106871,157.559322 C11.3363794,163.141243 35.5623681,180.271186 82.0934416,186.508475 Z" id="Path-Copy-92" fill="url(#radialGradient-31)" opacity="0.258138021"></path>
                    <path d="M317.653313,186.508475 C318.996237,190.785437 320.760048,194.918662 322.918849,198.847458 C320.156664,194.406754 317.976838,189.629367 316.432974,184.632768 C363.574217,178.305085 387.9132,160.813559 393.269132,155.457627 L394.173087,157.559322 C388.50077,163.141243 364.184386,180.271186 317.653313,186.508475 Z" id="Path-Copy-91" fill="url(#radialGradient-32)" opacity="0.258138021"></path>
                    <path d="M266.910178,9.15254237 C266.910178,9.15254237 320.93621,36.2841407 338.992544,46.0454071 C340.209728,46.6501037 341.402585,47.30905 342.565884,48.0170939 C343.936311,48.8006671 344.722231,49.2992674 344.785884,49.4463277 C345.201351,50.4422167 345.064109,51.5830387 344.424302,52.4519774 C344.424302,52.4519774 338.503398,62.3276836 334.525997,71.0282486 C334.517246,71.0245537 334.5085,71.0208537 334.49976,71.0171485 C333.272319,73.7041107 332.229581,76.2854277 331.601632,78.440678 C328.934965,87.5932203 327.443439,98.079096 323.714626,106.463277 C319.985812,114.847458 320.279598,131.525424 317.093157,140.225989 L317.093157,140.225989 L316.980163,140.610169 C316.45827,133.40438 317.309507,126.165027 319.488637,119.276836 C322.765473,110.39548 322.313496,93.740113 326.268298,84.8361582 C328.449657,79.924985 329.847232,74.573793 331.117078,69.1959342 C326.156169,65.9384694 323.19103,61.3258546 320.333907,60 C311.85933,56.0451977 283.429952,43.9774011 267.610743,40.0225989 C257.780234,37.5819209 223.497748,41.8757062 211.610743,39.6158192 C218.104869,38.8647716 224.513671,37.5028067 230.751986,35.5480226 C243.588144,31.5028249 257.554246,18.5084746 266.910178,9.15254237 Z" id="shadow" fill="url(#radialGradient-33)" opacity="0.342680432"></path>
                    <path d="M132.876279,9.15254237 C142.254811,18.5084746 156.198313,31.4124294 168.966675,35.5480226 C173.072563,36.8296944 177.253806,37.8561369 181.486449,38.6214689 C173.215263,39.3898305 162.322607,40.5649718 149.418652,42.4858757 C121.915386,46.4863508 77.5931262,61.9945587 67.7713894,65.5053769 C69.3713016,72.1960623 70.9299314,79.0079299 73.4826646,84.8361582 C77.2340771,93.4011299 76.9402918,110.508475 80.2623256,119.276836 C82.4141703,126.170073 83.2272809,133.411361 82.6578059,140.610169 L82.6578059,140.610169 L82.5222127,140.225989 C79.4035686,131.525424 79.9459415,115.186441 76.0815347,106.463277 C72.2171279,97.740113 70.815998,87.480226 68.194529,78.440678 C67.2962545,75.3431794 65.5117182,71.3169635 63.5537666,67.3621975 L63.5429461,67.3672316 C60.7149583,61.6601478 57.5273783,56.0814897 56.1294608,53.6808754 L56.067608,53.5759807 C55.6467544,52.8572871 55.4035686,52.4519774 55.4035686,52.4519774 C55.2936919,52.3140038 55.1968398,52.1682858 55.1133124,52.0166094 C54.6794697,51.2378168 54.5982034,50.2997841 54.9101778,49.4463277 C54.9940113,49.2761203 56.0442312,48.6349994 57.8425093,47.6309896 C58.9074473,47.0050204 59.9926603,46.4203442 61.0984838,45.8757062 L60.4504111,46.2022234 C78.2643948,36.5783528 132.876279,9.15254237 132.876279,9.15254237 Z" id="shadow" fill="url(#radialGradient-34)" opacity="0.342680432"></path>
                    <path d="M253.121246,6.23884109 C247.511418,13.2795924 226.248891,29.3575124 199.904528,29.15089 C176.135385,29.3373146 156.487737,16.3288048 148.751,8.57130804 C195.262785,24.4659712 240.398307,14.114703 252.966376,6.33709447 Z" id="Combined-Shape" fill="url(#radialGradient-35)" opacity="0.258138021"></path>
                    <path d="M254.543936,3.81818555 C254.493134,4.03111524 254.405545,4.26390068 254.277409,4.5181216 C254.036805,4.99548048 253.651765,5.57186254 253.130834,6.22679671 C240.845675,14.0180194 195.509801,24.5536312 148.75036,8.57208693 C148.012193,7.83043636 147.383107,7.13878663 146.86899,6.51083132 C196.143839,24.071758 244.307941,11.8327483 254.436397,3.90582527 Z" id="Path-Copy-93" fill="url(#radialGradient-36)" opacity="0.258138021"></path>
                    <path d="M145.509048,4.5181216 C142.975425,-0.589661349 156.348687,2.82864555 156.49151,2.36521638 C156.520989,2.37484925 156.551705,2.38513943 156.582494,2.39548023 C185.301053,8.98079259 215.151153,8.8570616 243.814133,2.03389831 C243.814133,2.03389831 243.887792,2.01388781 244.023822,1.9787349 L243.904528,2.0322459 C243.599265,2.17270415 243.435233,2.26846547 243.390281,2.3282599 C242.145746,3.06981813 251.885963,0.555117479 254.184839,2.51352245 L254.184839,2.51352245 L254.277409,2.59887006 L254.292076,2.56676401 C254.677514,2.99916629 254.726597,3.62693377 254.277409,4.5181216 C254.035401,4.99826639 253.647266,5.57859355 253.1217,6.2382715 C240.77531,14.027843 195.455947,24.5326549 148.749611,8.57168364 C147.107724,6.92325677 146.003298,5.51452983 145.509048,4.5181216 Z" id="Combined-Shape" fill="url(#radialGradient-37)" opacity="0.258138021"></path>
                    <path d="M132.876279,9.37687867 C142.254811,18.7328109 156.198313,31.7271612 169.034472,35.7723589 C189.17096,42.1223241 210.773689,42.1223241 230.910178,35.7723589 C243.65594,31.7271612 257.622042,18.7328109 267.06837,9.37687867 L267.06837,9.37687867 C267.06837,9.37687867 259.158765,1.17348884 256.898878,0.337330644 C254.638991,-0.498827548 247.588144,0.337330644 243.904528,2.0322459 C240.220912,3.72716115 257.102268,-1.08639817 254.277409,4.5181216 C251.452551,10.1226414 228.718087,29.3768787 199.904528,29.15089 C171.090969,29.3768787 148.333907,10.2130369 145.509048,4.5181216 C142.684189,-1.17679365 159.633342,3.72716115 155.972325,2.0322459 C152.311308,0.337330644 145.237861,-0.521426418 142.977974,0.337330644 C140.718087,1.19608771 132.808483,9.37687867 132.808483,9.37687867 L132.808483,9.37687867 L132.876279,9.37687867 Z" id="collar-shadow" fill="url(#radialGradient-38)" opacity="0.258138021"></path>
                    <path d="M230.842381,33.4689266 C210.705892,39.8188917 189.103164,39.8188917 168.966675,33.4689266 C156.650291,29.5819209 143.226562,17.3333333 133.87063,8.06779661 L132.808483,9.15254237 L132.808483,9.15254237 C142.187014,18.5084746 156.130517,31.5028249 168.966675,35.5480226 C189.103164,41.8979878 210.705892,41.8979878 230.842381,35.5480226 C243.588144,31.5028249 257.554246,18.5084746 267.000573,9.15254237 L267.000573,9.15254237 L265.938426,8.06779661 C256.537296,17.3333333 243.158765,29.5819209 230.842381,33.4689266 Z" id="shadow" fill="url(#radialGradient-39)" opacity="0.258138021"></path>
                    <path d="M254.277409,19.1186441 L246.141816,24.8587571 L241.034472,18.079096 C228.428433,26.0088758 213.848044,30.2373453 198.955376,30.2824859 C183.429952,30.4180791 171.226562,24.8813559 161.373455,19.3898305 L156.446901,26.3276836 L148.492099,21.5141243 C154.566068,26.8994063 161.482896,31.2510532 168.966675,34.3954802 C191.181364,42.4180791 210.706788,40.2033898 230.842381,34.3954802 C239.682998,31.0896405 247.685002,25.8732905 254.277409,19.1186441 L254.277409,19.1186441 Z" id="collar-upper-shadow" fill="url(#radialGradient-40)" opacity="0.258138021"></path>
                </g>
                <g id="label" transform="translate(188.610169, 13.344633)" fill-rule="nonzero">
                    <path d="M0.497175141,0.598870056 C0.497175141,0.598870056 0.248587571,9.48022599 0.497175141,10.3841808 C0.745762712,11.2881356 17.6723164,11.9661017 22.1242938,10.6101695 L21.9887006,0.598870056 L0.497175141,0.598870056 Z" id="Path" fill="#EDDFBE"></path>
                    <path d="M11.7966102,0.689265537 C11.7966102,0.689265537 18.8926554,1.50282486 22.0112994,1.66101695 L22.0112994,0.598870056 L11.6384181,0.598870056 L11.7966102,0.689265537 Z" id="Path" fill="#DDD0B6"></path>
                    <path d="M22.1468927,10.6101695 L22.1468927,9.48022599 L21.1299435,9.48022599 C21.1299435,9.48022599 17.6497175,10.0677966 12.3163842,10.6101695 C10.3963095,10.9814434 8.44022983,11.1330775 6.48587571,11.0621469 L6.10169492,11.0621469 C11.4489317,11.5534374 16.8357915,11.4016948 22.1468927,10.6101695 L22.1468927,10.6101695 Z" id="Path" fill="#DDD0B6"></path>
                    <path d="M0.519774011,10.3841808 C0.519774011,10.6327684 1.78531073,10.8361582 3.57062147,11.0169492 C2.49645799,10.8721124 1.45171082,10.5594508 0.474576271,10.0903955 C0.482456622,10.1892952 0.497562866,10.2874858 0.519774011,10.3841808 L0.519774011,10.3841808 Z" id="Path-Copy-66" fill="#DDD0B6"></path>
                    <polygon id="Path" fill="#929699" points="21.3107345 4.98305085 21.039548 4.98305085 21.039548 6.11299435 21.3107345 6.04519774"></polygon>
                    <polygon id="Path" fill="#929699" points="21.3107345 1.25423729 21.039548 1.25423729 21.039548 2.38418079 21.3107345 2.33898305"></polygon>
                    <polygon id="Path" fill="#929699" points="21.3107345 3.10734463 21.039548 3.10734463 21.039548 4.23728814 21.3107345 4.1920904"></polygon>
                    <polygon id="Path" fill="#929699" points="21.3107345 6.83615819 21.039548 6.83615819 21.039548 7.96610169 21.3107345 7.92090395"></polygon>
                    <polygon id="Path" fill="#929699" points="21.3107345 8.98305085 21.039548 8.98305085 21.039548 10.1129944 21.3107345 10.0677966"></polygon>
                    <polygon id="Path" fill="#929699" points="1.26553672 4.93785311 0.994350282 4.93785311 0.994350282 6.06779661 1.26553672 6.02259887"></polygon>
                    <polygon id="Path" fill="#929699" points="1.26553672 1.23163842 0.994350282 1.23163842 0.994350282 2.36158192 1.26553672 2.29378531"></polygon>
                    <polygon id="Path" fill="#929699" points="1.26553672 3.08474576 0.994350282 3.08474576 0.994350282 4.21468927 1.26553672 4.16949153"></polygon>
                    <polygon id="Path" fill="#929699" points="1.26553672 6.81355932 0.994350282 6.81355932 0.994350282 7.94350282 1.26553672 7.87570621"></polygon>
                    <polygon id="Path" fill="#929699" points="1.26553672 8.96045198 0.994350282 8.96045198 0.994350282 10.0903955 1.26553672 10.0451977"></polygon>
                </g>
                <text id="I-speak" font-family="Arial-BoldMT, Arial" font-size="40" font-weight="bold" fill="#F8F8F8">
                    <tspan x="132" y="145">I speak</tspan>
                </text>
                <text id="Javascript" font-family="ArialMT, Arial" font-size="20" font-weight="normal" fill="#F8F8F8">
                    <tspan x="152" y="191">Javascript</tspan>
                </text>
                <text id="PHP" font-family="ArialMT, Arial" font-size="20" font-weight="normal" fill="#F8F8F8">
                    <tspan x="152" y="223">PHP</tspan>
                </text>
                <text id="Dutch" font-family="ArialMT, Arial" font-size="20" font-weight="normal" fill="#F8F8F8">
                    <tspan x="152" y="255">Dutch</tspan>
                </text>
                <text id="English" font-family="ArialMT, Arial" font-size="20" font-weight="normal" fill="#F8F8F8">
                    <tspan x="152" y="287">English</tspan>
                </text>
                <path d="M140,278 C141.104569,278 142,278.895431 142,280 C142,281.104569 141.104569,282 140,282 C138.895431,282 138,281.104569 138,280 C138,278.895431 138.895431,278 140,278 Z M140,246 C141.104569,246 142,246.895431 142,248 C142,249.104569 141.104569,250 140,250 C138.895431,250 138,249.104569 138,248 C138,246.895431 138.895431,246 140,246 Z M140,214 C141.104569,214 142,214.895431 142,216 C142,217.104569 141.104569,218 140,218 C138.895431,218 138,217.104569 138,216 C138,214.895431 138.895431,214 140,214 Z M140,182 C141.104569,182 142,182.895431 142,184 C142,185.104569 141.104569,186 140,186 C138.895431,186 138,185.104569 138,184 C138,182.895431 138.895431,182 140,182 Z" id="Combined-Shape" fill="#FFFFFF"></path>
            </g>
        </g>
    </g>
</svg>